<svg width="800" height="800" viewBox="0 0 800 800" fill="none" xmlns="http://www.w3.org/2000/svg">
<path d="M90.8001 226.338C94.1688 226.338 97.7532 226.458 102.064 226.722L103.842 226.842L266.494 266.5L226.834 103.863L226.728 102.085C226.45 97.8111 226.331 94.2158 226.331 90.8064C226.331 86.9189 226.491 83.0846 226.755 79.2627C187.747 74.633 147.094 87.2361 117.163 117.169C87.2423 147.089 74.6391 187.755 79.2688 226.75C83.0766 226.51 86.911 226.338 90.8001 226.338Z" fill="url(#paint0_linear_101_10)"/>
<path d="M697.95 226.722C702.275 226.458 705.831 226.338 709.228 226.338C713.089 226.338 716.923 226.509 720.745 226.763C725.389 187.755 712.784 147.088 682.839 117.169C652.92 87.2376 612.255 74.6329 573.247 79.2626C573.5 83.0845 573.686 86.9189 573.686 90.8064C573.686 94.2689 573.553 97.972 573.287 102.124L573.155 103.875L533.509 266.5L696.161 226.842L697.95 226.722Z" fill="url(#paint1_linear_101_10)"/>
<path d="M709.228 573.677C705.753 573.677 702.142 573.558 697.884 573.28L696.119 573.159L533.508 533.516L573.153 696.139L573.286 697.891C573.552 702.031 573.684 705.745 573.684 709.222C573.684 713.097 573.498 716.917 573.245 720.739C612.253 725.381 652.919 712.778 682.837 682.845C712.756 652.914 725.361 612.261 720.731 573.253C716.923 573.503 713.089 573.677 709.228 573.677Z" fill="url(#paint2_linear_101_10)"/>
<path d="M102.13 573.278C97.8579 573.556 94.2751 573.675 90.8001 573.675C86.9126 573.675 83.0782 573.516 79.2688 573.252C74.6391 612.259 87.2423 652.913 117.163 682.844C147.094 712.777 187.747 725.38 226.755 720.738C226.516 716.916 226.331 713.095 226.331 709.22C226.331 705.784 226.45 702.188 226.728 697.903L226.834 696.138L266.492 533.514L103.881 573.159L102.13 573.278Z" fill="url(#paint3_linear_101_10)"/>
<path d="M667.316 267.308C664.409 267.308 661.531 267.441 658.664 267.627L491.675 308.345L532.381 141.356C532.581 138.491 532.688 135.598 532.688 132.706C532.686 59.4141 473.272 0 400.008 0C326.73 0 267.316 59.4141 267.316 132.706C267.316 135.598 267.447 138.491 267.62 141.356L308.327 308.345L141.364 267.627C138.484 267.441 135.62 267.308 132.7 267.308C59.4219 267.308 0.0078125 326.722 0.0078125 400C0.0078125 473.292 59.4219 532.706 132.7 532.706C135.592 532.706 138.484 532.573 141.364 532.375L308.327 491.669L267.62 658.658C267.448 661.525 267.316 664.403 267.316 667.308C267.316 740.586 326.728 800 400.008 800C473.272 800 532.686 740.587 532.686 667.308C532.686 664.403 532.58 661.523 532.38 658.658L491.673 491.669L658.662 532.375C661.516 532.573 664.408 532.706 667.314 532.706C740.592 532.706 799.992 473.294 799.992 400C799.994 326.722 740.606 267.308 667.316 267.308ZM399.994 474.737C358.717 474.737 325.256 441.277 325.256 400C325.256 358.711 358.719 325.25 399.994 325.25C441.283 325.25 474.744 358.713 474.744 400C474.744 441.277 441.283 474.737 399.994 474.737Z" fill="url(#paint4_radial_101_10)"/>
<defs>
<linearGradient id="paint0_linear_101_10" x1="172.415" y1="78.3301" x2="172.415" y2="266.5" gradientUnits="userSpaceOnUse">
<stop stop-color="#ECE9E9"/>
<stop offset="1" stop-color="#C8C8C8"/>
</linearGradient>
<linearGradient id="paint1_linear_101_10" x1="627.596" y1="78.3301" x2="627.596" y2="266.5" gradientUnits="userSpaceOnUse">
<stop stop-color="#ECE9E9"/>
<stop offset="1" stop-color="#C8C8C8"/>
</linearGradient>
<linearGradient id="paint2_linear_101_10" x1="627.586" y1="533.516" x2="627.586" y2="721.676" gradientUnits="userSpaceOnUse">
<stop stop-color="#ECE9E9"/>
<stop offset="1" stop-color="#C8C8C8"/>
</linearGradient>
<linearGradient id="paint3_linear_101_10" x1="172.414" y1="533.514" x2="172.414" y2="721.675" gradientUnits="userSpaceOnUse">
<stop stop-color="#ECE9E9"/>
<stop offset="1" stop-color="#C8C8C8"/>
</linearGradient>
<radialGradient id="paint4_radial_101_10" cx="0" cy="0" r="1" gradientUnits="userSpaceOnUse" gradientTransform="translate(400 400) rotate(90) scale(400 399.992)">
<stop stop-color="#04ACDF"/>
<stop offset="1" stop-color="#BEEBFF"/>
</radialGradient>
</defs>
</svg>
