<svg width="483" height="636" viewBox="0 0 483 636" fill="none" xmlns="http://www.w3.org/2000/svg">
<path fill-rule="evenodd" clip-rule="evenodd" d="M290 635.48C280.38 635.7 268.75 635.48 264.18 635C259.6 634.51 250.82 633.18 244.68 632.02C238.53 630.86 229.09 628.57 223.69 626.91C218.29 625.26 209.75 622.11 204.7 619.92C199.64 617.73 192.36 614.09 188.51 611.83C184.65 609.58 178.27 605.33 174.31 602.39C170.36 599.45 163.69 593.55 159.49 589.27C155.29 585 150.06 578.8 147.88 575.5C143.9 569.5 143.9 569.5 144.16 556C144.43 542.5 144.43 542.5 126.2 537.8C116.01 535.18 105.73 531.89 102.9 530.35C100.11 528.83 96.69 526.23 95.29 524.57C92.94 521.78 92.79 521.01 93.31 514.52C93.61 510.66 95.24 501.42 96.91 494C98.59 486.58 100.08 478.93 100.23 477.02C100.5 473.54 100.5 473.54 89.5 470.79C82.82 469.13 74.96 466.27 69.5 463.53C64.55 461.05 56.63 456.1 51.89 452.54C47.15 448.99 39.76 442.35 35.46 437.79C31.17 433.23 24.98 425.91 21.72 421.52C18.45 417.13 13.36 408.7 10.39 402.79C7.43 396.87 3.88 388.15 2.5 383.41C1.13 378.66 0 373.43 0 371.79C0 370.15 0.79 367.45 1.75 365.79C2.71 364.13 13.62 353.71 26 342.63C38.38 331.55 53.77 317.83 60.21 312.13C68.16 305.1 72.23 300.76 72.89 298.63C73.43 296.91 74.13 292.8 74.47 289.5C74.8 286.2 75.71 275.18 76.49 265C77.28 254.7 78.58 244.59 79.43 242.19C80.27 239.82 83.4 233.75 86.4 228.69C89.39 223.64 94.8 215.25 98.42 210.06C102.04 204.86 105 199.56 105 198.27C105 196.98 104.32 194.89 103.48 193.61C102.65 192.34 99.24 178.74 95.92 163.4C92.59 148.05 88.8 129.19 87.49 121.48C86.18 113.76 84.21 100.49 83.12 91.98C82.02 83.46 80.6 68.62 79.96 59C79.31 49.38 79 34.08 79.26 25C79.52 15.92 80.26 6.81999 80.91 4.75999C81.78 2.00999 82.8 0.839986 84.76 0.349986C86.22 -0.0200139 89.85 0.179991 92.8 0.799991C95.76 1.41999 102.84 4.15998 108.53 6.87998C114.22 9.59998 123.3 14.64 128.69 18.1C134.09 21.55 143.9 28.62 150.5 33.82C157.1 39.02 167.68 48.51 174 54.91C180.32 61.31 188.74 70.87 192.69 76.16C196.65 81.44 202.56 89.85 205.84 94.83C209.11 99.82 214.58 109.37 217.98 116.05C224.18 128.2 224.18 128.2 233.34 127.35C238.38 126.88 252.62 126.52 265 126.54C284.23 126.58 289.15 126.91 298.84 128.84C307.48 130.56 310.51 130.82 311.56 129.95C312.33 129.32 315.06 124.91 317.63 120.15C320.21 115.39 325.49 106.81 329.37 101.08C333.25 95.35 340.39 85.68 345.24 79.58C350.09 73.49 360.35 61.9 368.03 53.83C375.72 45.76 386.69 35.11 392.42 30.17C398.14 25.22 406.28 18.85 410.49 16C414.71 13.16 419.68 10.19 421.55 9.41999C423.41 8.63999 426.68 7.99999 428.82 7.99999C431.21 7.99999 434.01 8.87999 436.1 10.28C437.97 11.54 440.95 14.78 442.72 17.47C444.51 20.21 448.12 29.03 450.88 37.44C453.6 45.72 456.96 57.9 458.35 64.5C459.74 71.1 461.66 81.68 462.61 88C463.82 95.94 464.36 105.54 464.36 119C464.36 129.72 463.81 142.32 463.14 147C462.47 151.68 460.51 160.68 458.79 167C457.07 173.32 453.81 183 451.54 188.5C449.27 194 445.53 201.71 443.23 205.63C440.93 209.55 436.56 216.05 433.52 220.06C430.49 224.07 428 228.17 428 229.17C428 230.17 431.33 240.11 435.41 251.25C439.48 262.39 447.32 282.36 452.83 295.64C458.34 308.92 464.88 326.02 467.38 333.64C469.87 341.26 472.85 351.26 474 355.85C475.15 360.45 477.18 370.62 478.51 378.46C479.84 386.3 481.44 400.82 482.06 410.73C482.91 424.1 482.92 432.73 482.09 444.14C481.47 452.6 480.3 464.02 479.47 469.51C478.65 475.01 476.64 484.82 475 491.33C473.36 497.83 469.74 508.96 466.94 516.06C464.14 523.16 459.59 533.13 456.82 538.23C454.05 543.33 449.4 550.89 446.48 555.03C443.56 559.18 437.83 566.38 433.75 571.03C429.68 575.69 422.78 582.55 418.42 586.27C414.06 590 405.77 596.45 400 600.6C394.23 604.76 383.65 611.02 376.5 614.5C369.35 617.99 359.51 622.23 354.64 623.93C349.77 625.63 341.44 628.12 336.13 629.47C330.82 630.81 322.2 632.63 316.99 633.51C311.77 634.38 299.62 635.27 290 635.48ZM277.95 612.73C283.7 612.31 293.83 610.87 300.45 609.53C307.08 608.19 318.48 605.04 325.78 602.54C333.09 600.04 343.21 595.91 348.28 593.37C353.35 590.82 361.77 585.92 367 582.47C372.23 579.03 379.16 573.87 382.41 571.02C385.66 568.16 391.61 562.24 395.63 557.86C399.65 553.47 405.39 546.2 408.37 541.69C411.35 537.19 416.25 528.55 419.27 522.5C422.28 516.45 426.34 507 428.29 501.5C430.24 496 432.77 488.1 433.91 483.95C435.06 479.8 437.09 469.9 438.44 461.95C439.78 454 441.36 440.31 441.94 431.51C442.68 420.38 442.69 410.67 441.97 399.51C441.4 390.71 440.03 377.88 438.93 371C437.83 364.12 435.18 351.3 433.04 342.5C430.89 333.7 427.03 319.98 424.46 312C421.88 304.02 417.53 291.88 414.8 285C412.06 278.12 405.82 263.98 400.92 253.57C396.03 243.15 390.89 232.93 389.51 230.84C388.13 228.75 387 226.34 387 225.47C387 224.61 390.39 220.08 394.54 215.42C398.68 210.76 405 202.49 408.57 197.04C412.14 191.59 417.05 182.93 419.47 177.81C421.89 172.69 424.99 165.12 426.35 161C427.72 156.88 429.77 148.78 430.91 143C432.05 137.22 433.44 127.84 433.99 122.14C434.55 116.45 434.99 102.05 434.98 90.14C434.97 78.24 434.52 57.07 433.98 43.1C433.37 27.26 432.57 17.19 431.87 16.35C431.26 15.61 429.98 15 429.03 15C428.08 15 425.2 16.12 422.63 17.48C420.06 18.85 412.64 24.23 406.13 29.43C399.63 34.64 388.69 44.73 381.82 51.86C374.96 58.99 364.72 70.51 359.06 77.47C353.41 84.43 345.01 95.72 340.4 102.56C335.79 109.39 329.54 119.93 326.51 125.97C323.48 132.01 319.03 142.72 316.62 149.77C314.2 156.81 311.7 165.15 311.04 168.29C310.39 171.43 309.52 174 309.1 174C308.68 174 306.9 172.22 305.15 170.04C303.4 167.86 301.72 164.82 301.42 163.29C301.12 161.75 301.31 157.8 301.84 154.5C302.38 151.2 302.49 148.16 302.09 147.73C301.7 147.31 298.25 146.32 294.43 145.53C290.62 144.73 281.45 143.6 274.05 143C264.43 142.23 256.77 142.22 247.13 142.99C239.72 143.59 227.77 145.21 220.58 146.61C213.39 148.01 201.43 151.18 194 153.65C186.57 156.12 174.56 160.99 167.31 164.47C160.06 167.96 149.93 173.65 144.81 177.12C139.13 180.96 130.6 188.32 122.94 195.96C113.46 205.42 108.8 211.02 103.94 218.76C100.4 224.41 94.69 233.38 91.25 238.71C87.81 244.03 85 248.88 85 249.49C85 250.09 87.36 251.75 90.25 253.17C93.14 254.59 98.24 257.82 101.59 260.34C104.94 262.86 109.59 267 111.93 269.54C114.27 272.08 116.28 274.01 116.39 273.83C116.51 273.65 117.38 272.26 118.33 270.75C119.27 269.24 120.44 268 120.92 268C121.39 268 122.04 268.67 122.36 269.5C122.68 270.32 122.46 273.54 121.89 276.66C121.31 279.77 119.06 286.93 116.89 292.56C114.71 298.19 111.57 304.68 109.9 306.97C108.24 309.27 105.26 311.83 103.3 312.65C101.33 313.47 98.71 313.89 97.48 313.59C96.21 313.26 94.66 311.63 93.88 309.76C93.03 307.76 92.5 302.82 92.5 297C92.5 291.22 93.03 286.23 93.87 284.26C94.62 282.48 95.63 281.27 96.11 281.57C96.6 281.87 98.17 284.6 99.61 287.64C101.4 291.43 102.55 292.85 103.25 292.15C103.82 291.58 104.49 288.94 104.75 286.28C105.04 283.22 104.65 280.1 103.68 277.78C102.82 275.72 100.3 272.78 97.89 271.03C95.54 269.33 92.56 267.68 91.26 267.35C89.97 267.03 88.63 267.04 88.29 267.38C87.95 267.72 87.08 275.31 86.35 284.25C85.63 293.19 84.81 301.47 84.52 302.66C84.24 303.85 78.94 309.52 72.75 315.27C66.56 321.02 55.87 330.62 48.99 336.61C42.12 342.6 33.57 350 29.99 353.05C26.42 356.1 19.98 361.44 15.67 364.92C8.68 370.58 7.91 371.53 8.47 373.88C8.81 375.32 12.25 383.02 16.11 390.99C19.97 398.96 24.29 407 25.7 408.85C27.11 410.7 29.67 412.8 31.38 413.51C33.1 414.23 39.68 415.73 46 416.85C52.32 417.97 65.6 420.08 75.5 421.54C88.78 423.5 97.56 424.2 109 424.23C120.01 424.26 126.48 423.79 131.33 422.63C135.08 421.73 141.48 419.61 145.54 417.92C149.6 416.23 156.57 412.63 161.03 409.92C165.49 407.21 171.65 402.95 174.72 400.45C177.79 397.95 180.66 396.26 181.09 396.7C181.53 397.14 182.19 400.96 182.57 405.19C183.26 412.87 183.26 412.87 180.16 415.71C178.45 417.27 174.59 420.04 171.59 421.85C168.59 423.67 162.53 426.72 158.13 428.62C153.73 430.53 145.71 433.26 140.31 434.7C131.47 437.05 128.67 437.32 112 437.37C101.56 437.4 90.01 436.87 85.5 436.15C81.1 435.45 69.7 433.06 60.17 430.85C50.64 428.64 42.54 427.14 42.17 427.52C41.8 427.91 44.95 431.43 49.16 435.36C53.37 439.29 59.32 444.01 62.38 445.85C65.44 447.7 70.66 450.31 73.98 451.65C77.3 452.99 83.5 455.02 87.76 456.16C93.89 457.8 98.62 458.24 110.5 458.29C120.69 458.33 128.38 457.8 134.5 456.64C139.45 455.7 150.02 453.18 158 451.03C165.98 448.88 175.43 446.66 179 446.1C182.57 445.53 194.05 444.58 204.5 443.98C214.95 443.38 229.67 442.25 237.21 441.46C244.74 440.68 254.19 439.54 258.21 438.95C262.22 438.35 273.25 435.87 282.72 433.43C292.18 431 300.62 429 301.47 429C302.31 429 303 429.73 303 430.62C303 431.5 301.47 434.32 299.59 436.87C297.72 439.41 290.86 446.68 284.34 453C277.83 459.33 263.95 472.45 253.5 482.17C243.05 491.89 231.98 501.9 228.9 504.42C225.82 506.94 222.58 509 221.71 509C220.59 509 219.97 507.75 219.61 504.75C219.32 502.41 218.86 491.01 218.58 479.42C218.3 467.83 217.76 457.53 217.38 456.54C216.75 454.9 215.7 454.81 205.09 455.45C198.72 455.83 193.15 456.48 192.73 456.89C192.31 457.3 190.83 465.48 189.45 475.07C188.07 484.66 184.06 506.9 180.53 524.5C177 542.1 173.61 560.27 172.99 564.88C172.15 571.14 172.16 573.97 173.01 576.03C173.64 577.55 175.81 580.11 177.83 581.73C179.85 583.34 185.88 587.44 191.23 590.84C196.59 594.24 204.96 598.78 209.83 600.92C214.7 603.07 221.8 605.79 225.59 606.97C229.39 608.15 235.65 609.81 239.5 610.65C243.35 611.5 251.23 612.49 257 612.85C262.77 613.21 272.2 613.16 277.95 612.73ZM41.49 405.75C39.26 405.89 36.01 405.26 34.13 404.32C32.27 403.39 28.98 400.38 26.81 397.64C24.63 394.89 22.05 391.03 21.06 389.07C20.08 387.11 18.71 383.77 18.03 381.66C17.34 379.54 17.17 377.48 17.64 377.06C18.11 376.64 23.9 376.89 30.5 377.6C37.1 378.32 45.45 378.92 49.05 378.95C55.1 379 56.14 378.66 62.89 374.5C66.91 372.02 70.6 370 71.09 370C71.59 370 72 371.28 72 372.84C72 374.56 70.61 377.46 68.44 380.24C66.48 382.76 61.58 387.52 57.56 390.82C53.42 394.21 49.21 398.71 47.86 401.16C45.72 405.05 45.06 405.53 41.49 405.75ZM213.59 316C205.12 316 201.91 315.63 200.22 314.44C198.33 313.12 198 311.96 198 306.65C198 303.23 198.67 297.84 199.5 294.68C200.32 291.52 201.86 287.24 202.91 285.17C203.97 283.09 206.96 279.04 209.55 276.16C212.14 273.28 214.04 270.71 213.78 270.45C213.52 270.19 211.46 270.63 209.2 271.43C206.94 272.23 202.62 274.46 199.6 276.39C196.57 278.33 190.71 283.13 186.56 287.07C181.67 291.71 178.5 294.02 177.52 293.64C176.68 293.32 176 292.6 176 292.03C176 291.46 174.23 291 172.06 291C169.89 291 167.91 290.66 167.65 290.24C167.39 289.83 167.43 288.14 167.74 286.49C168.1 284.49 170.82 281.02 175.94 276C180.14 271.88 186.17 266.97 189.34 265.1C192.5 263.23 199.46 260.22 204.8 258.4C210.13 256.59 219.45 254.37 225.5 253.47C232.3 252.45 242.81 251.83 253 251.83C262.07 251.84 273.55 252.35 278.5 252.98C283.45 253.6 287.91 254.52 288.42 255.02C288.97 255.58 288.88 257.46 288.18 259.81C287.54 261.93 286.23 264.38 285.26 265.25C284.09 266.29 279.82 267.19 272.55 267.91C266.52 268.51 261.27 269.34 260.87 269.75C260.48 270.16 259.67 274.1 259.07 278.5C258.48 282.9 257.02 289.29 255.83 292.71C254.64 296.12 252.04 301.06 250.05 303.69C247.72 306.78 244.51 309.44 240.97 311.23C237.96 312.76 233.08 314.45 230.11 315C227.15 315.55 219.71 316 213.59 316ZM225.33 291.99C228.2 292 229.86 291.29 231.99 289.16C233.89 287.26 235.05 284.83 235.51 281.79C236 278.5 235.75 276.41 234.57 274.13C233.2 271.49 232.38 271 229.29 271C227.28 271 223.79 271.89 221.54 272.98C219.3 274.07 216.68 276.27 215.73 277.88C214.78 279.49 214.01 282.09 214.02 283.65C214.02 285.22 214.37 287.04 214.79 287.69C215.2 288.35 216.89 289.58 218.52 290.44C220.16 291.29 223.22 291.99 225.33 291.99ZM362.17 222.02C361.8 222.03 356.42 216.74 350.21 210.27C344 203.8 338.69 197.58 338.4 196.46C338.06 195.09 343.18 184.25 353.95 163.57C362.78 146.6 373.11 126.15 376.9 118.11C380.69 110.08 386.6 97.43 390.03 90C393.47 82.57 399.41 70.2 403.24 62.5C407.07 54.8 412.94 43.89 416.28 38.25C419.62 32.61 422.92 28 423.61 28C424.34 28 425.22 30.02 425.69 32.75C426.13 35.36 426.44 44.92 426.37 54C426.29 64.29 425.43 76.69 424.1 86.92C422.93 95.95 420.8 108.1 419.38 113.92C417.95 119.74 415.09 129.22 413.03 135C410.97 140.78 406.91 150.36 404.01 156.31C401.11 162.26 395.83 171.48 392.27 176.81C388.71 182.14 382.33 190.78 378.1 196C373.86 201.23 369.47 206.85 368.34 208.5C367.21 210.15 365.51 213.86 364.56 216.75C363.61 219.64 362.54 222.01 362.17 222.02ZM111.99 193C112.32 193 113.14 192.46 113.8 191.8C114.46 191.14 115 188.1 115 185.05C115 182 114.3 175.51 113.44 170.64C112.59 165.77 109.47 151.82 106.5 139.64C103.54 127.46 98.62 105.17 95.57 90.1C92.52 75.02 89.73 62.42 89.38 62.1C89.02 61.77 89.03 66.9 89.39 73.5C89.76 80.1 90.52 90.45 91.09 96.5C91.66 102.55 93.43 114.03 95.03 122C96.64 129.97 99.11 143.47 100.54 152C101.97 160.53 104.28 171.75 105.68 176.95C107.08 182.15 108.93 187.88 109.8 189.7C110.66 191.51 111.65 193 111.99 193ZM154.16 159C154.75 159 157.77 157.48 160.87 155.62C163.97 153.75 168.41 151.27 170.75 150.09C174.19 148.37 175 147.44 175 145.23C175 143.73 173.89 137.95 172.55 132.38C171.2 126.82 167.84 116.58 165.09 109.64C162.34 102.69 158.86 94.87 157.35 92.26C155.85 89.64 152.02 83.61 148.85 78.86C145.69 74.11 140.74 67.36 137.86 63.86C134.98 60.36 129.22 53.72 125.06 49.09C120.9 44.47 111.05 34.66 103.17 27.29C95.29 19.92 88.31 14.07 87.67 14.3C87.03 14.52 86.57 16.24 86.65 18.1C86.76 20.57 89.35 25.33 96.1 35.5C101.21 43.2 110.08 56.92 115.79 66C121.51 75.07 129.73 89.7 134.05 98.5C138.37 107.3 143.25 118.62 144.9 123.66C146.55 128.7 148.66 137.03 149.59 142.16C150.52 147.3 151.68 153.19 152.18 155.25C152.67 157.31 153.56 159 154.16 159Z" fill="white"/>
</svg>
