<svg width="750" height="800" viewBox="0 0 750 800" fill="none" xmlns="http://www.w3.org/2000/svg">
<path fill-rule="evenodd" clip-rule="evenodd" d="M375 -1.97175e-05C348.445 -0.0227685 322.737 9.349 302.427 26.4569C282.117 43.5648 268.513 67.3058 264.023 93.4788C259.533 119.652 264.447 146.569 277.894 169.468C291.341 192.367 312.455 209.771 337.5 218.6V241.85C301.974 250.281 270.323 270.431 247.65 299.05L216.4 280.75C226.583 256.328 227.832 229.098 219.927 203.847C212.022 178.595 195.47 156.938 173.179 142.682C150.889 128.425 124.286 122.482 98.0476 125.896C71.809 129.31 47.6135 141.864 29.7137 161.35C11.8139 180.837 1.35528 206.009 0.176133 232.442C-1.00301 258.876 7.17275 284.879 23.2664 305.882C39.3601 326.884 62.3418 341.542 88.1722 347.279C114.003 353.016 141.029 349.465 164.5 337.25L215.8 367.35C211.397 388.894 211.397 411.106 215.8 432.65L164.5 462.7C141.029 450.485 114.003 446.934 88.1722 452.671C62.3418 458.408 39.3601 473.066 23.2664 494.068C7.17275 515.071 -1.00301 541.074 0.176133 567.508C1.35528 593.941 11.8139 619.113 29.7137 638.6C47.6135 658.086 71.809 670.64 98.0476 674.054C124.286 677.468 150.889 671.525 173.179 657.268C195.47 643.012 212.022 621.355 219.927 596.103C227.832 570.852 226.583 543.622 216.4 519.2L247.65 500.9C270.316 529.538 301.967 549.706 337.5 558.15V581.4C312.479 590.246 291.392 607.653 277.964 630.543C264.536 653.433 259.632 680.334 264.12 706.49C268.608 732.646 282.198 756.374 302.488 773.479C322.778 790.584 348.462 799.966 375 799.966C401.538 799.966 427.222 790.584 447.512 773.479C467.802 756.374 481.392 732.646 485.88 706.49C490.367 680.334 485.464 653.433 472.036 630.543C458.608 607.653 437.52 590.246 412.5 581.4V558.15C448.032 549.706 479.684 529.538 502.35 500.9L533.6 519.2C523.417 543.622 522.168 570.852 530.073 596.103C537.978 621.355 554.53 643.012 576.821 657.268C599.111 671.525 625.714 677.468 651.952 674.054C678.191 670.64 702.386 658.086 720.286 638.6C738.186 619.113 748.645 593.941 749.824 567.508C751.003 541.074 742.827 515.071 726.734 494.068C710.64 473.066 687.658 458.408 661.828 452.671C635.997 446.934 608.971 450.485 585.5 462.7L534.2 432.7C538.611 411.14 538.611 388.91 534.2 367.35L585.5 337.3C608.971 349.515 635.997 353.066 661.828 347.329C687.658 341.592 710.64 326.934 726.734 305.932C742.827 284.929 751.003 258.926 749.824 232.492C748.645 206.059 738.186 180.887 720.286 161.4C702.386 141.914 678.191 129.36 651.952 125.946C625.714 122.532 599.111 128.475 576.821 142.732C554.53 156.988 537.978 178.645 530.073 203.897C522.168 229.148 523.417 256.378 533.6 280.8L502.35 299.05C479.674 270.433 448.024 250.285 412.5 241.85V218.6C437.545 209.771 458.659 192.367 472.106 169.468C485.553 146.569 490.467 119.652 485.977 93.4788C481.487 67.3058 467.883 43.5648 447.573 26.4569C427.263 9.349 401.555 -0.0227685 375 -1.97175e-05ZM337.5 112.5C337.5 102.554 341.451 93.0161 348.483 85.9835C355.516 78.9509 365.054 75 375 75C384.946 75 394.484 78.9509 401.516 85.9835C408.549 93.0161 412.5 102.554 412.5 112.5C412.5 122.446 408.549 131.984 401.516 139.016C394.484 146.049 384.946 150 375 150C365.054 150 355.516 146.049 348.483 139.016C341.451 131.984 337.5 122.446 337.5 112.5ZM112.5 200C102.554 200 93.0161 203.951 85.9835 210.983C78.9509 218.016 75 227.554 75 237.5C75 247.446 78.9509 256.984 85.9835 264.016C93.0161 271.049 102.554 275 112.5 275C122.446 275 131.984 271.049 139.016 264.016C146.049 256.984 150 247.446 150 237.5C150 227.554 146.049 218.016 139.016 210.983C131.984 203.951 122.446 200 112.5 200ZM112.5 525C102.554 525 93.0161 528.951 85.9835 535.984C78.9509 543.016 75 552.554 75 562.5C75 572.446 78.9509 581.984 85.9835 589.016C93.0161 596.049 102.554 600 112.5 600C122.446 600 131.984 596.049 139.016 589.016C146.049 581.984 150 572.446 150 562.5C150 552.554 146.049 543.016 139.016 535.984C131.984 528.951 122.446 525 112.5 525ZM337.5 687.5C337.5 677.554 341.451 668.016 348.483 660.984C355.516 653.951 365.054 650 375 650C384.946 650 394.484 653.951 401.516 660.984C408.549 668.016 412.5 677.554 412.5 687.5C412.5 697.446 408.549 706.984 401.516 714.016C394.484 721.049 384.946 725 375 725C365.054 725 355.516 721.049 348.483 714.016C341.451 706.984 337.5 697.446 337.5 687.5ZM637.5 525C627.554 525 618.016 528.951 610.983 535.984C603.951 543.016 600 552.554 600 562.5C600 572.446 603.951 581.984 610.983 589.016C618.016 596.049 627.554 600 637.5 600C647.446 600 656.984 596.049 664.016 589.016C671.049 581.984 675 572.446 675 562.5C675 552.554 671.049 543.016 664.016 535.984C656.984 528.951 647.446 525 637.5 525ZM637.5 200C627.554 200 618.016 203.951 610.983 210.983C603.951 218.016 600 227.554 600 237.5C600 247.446 603.951 256.984 610.983 264.016C618.016 271.049 627.554 275 637.5 275C647.446 275 656.984 271.049 664.016 264.016C671.049 256.984 675 247.446 675 237.5C675 227.554 671.049 218.016 664.016 210.983C656.984 203.951 647.446 200 637.5 200ZM294.75 365C304.033 343.716 321.39 326.992 343.003 318.506C353.705 314.304 365.13 312.251 376.625 312.465C388.121 312.678 399.461 315.154 410 319.75C420.539 324.346 430.069 330.973 438.046 339.253C446.024 347.532 452.292 357.301 456.494 368.003C460.696 378.705 462.749 390.13 462.535 401.625C462.322 413.121 459.846 424.461 455.25 435C445.967 456.284 428.61 473.008 406.997 481.494C385.383 489.98 361.284 489.533 340 480.25C318.716 470.967 301.992 453.61 293.506 431.997C285.02 410.383 285.467 386.284 294.75 365Z" fill="#3965A7"/>
</svg>
